<?xml version="1.0"?>
<svg xmlns="http://www.w3.org/2000/svg" xmlns:xlink="http://www.w3.org/1999/xlink" xmlns:svgjs="http://svgjs.com/svgjs" version="1.1" width="512" height="512" x="0" y="0" viewBox="0 0 24 24" style="enable-background:new 0 0 512 512" xml:space="preserve" class=""><g><path xmlns="http://www.w3.org/2000/svg" d="m21.25 0h-18.5c-1.517 0-2.75 1.233-2.75 2.75v18.5c0 1.517 1.233 2.75 2.75 2.75h18.5c1.517 0 2.75-1.233 2.75-2.75v-18.5c0-1.517-1.233-2.75-2.75-2.75z" fill="#08d5b9" data-original="#00bcd4" style="" class=""/><path xmlns="http://www.w3.org/2000/svg" d="m13.25 19h-2.5c-.689 0-1.25-.561-1.25-1.25v-5.75h-2.75c-.659 0-.998-.792-.542-1.268l5.25-5.5c.283-.296.802-.296 1.085 0l5.25 5.5c.455.476.116 1.268-.543 1.268h-2.75v5.75c0 .689-.561 1.25-1.25 1.25z" fill="#ffffff" data-original="#ffffff" style="" class=""/><path xmlns="http://www.w3.org/2000/svg" d="m12 0h-9.25c-1.517 0-2.75 1.233-2.75 2.75v18.5c0 1.517 1.233 2.75 2.75 2.75h9.25v-5h-1.25c-.689 0-1.25-.561-1.25-1.25v-5.75h-2.75c-.659 0-.998-.792-.542-1.268l5.25-5.5c.141-.148.342-.222.542-.222z" fill="#077e6d" data-original="#00a4b9" style="" class=""/><path xmlns="http://www.w3.org/2000/svg" d="m12 5.01c-.2 0-.401.074-.542.222l-5.25 5.5c-.456.476-.117 1.268.542 1.268h2.75v5.75c0 .689.561 1.25 1.25 1.25h1.25z" fill="#dedede" data-original="#dedede" style="" class=""/></g></svg>
